<svg width="19" height="23" viewBox="0 0 19 23" fill="none" xmlns="http://www.w3.org/2000/svg">
<path d="M2.00392 9.16432C2.04074 8.67208 2.24896 8.21277 2.58713 7.87788C2.92531 7.54298 3.36861 7.35708 3.82876 7.35718H14.8638C15.3239 7.35708 15.7672 7.54298 16.1054 7.87788C16.4436 8.21277 16.6518 8.67208 16.6886 9.16432L17.4235 18.9857C17.4437 19.256 17.4115 19.5279 17.3291 19.7842C17.2466 20.0405 17.1155 20.2756 16.9442 20.4749C16.7729 20.6742 16.565 20.8333 16.3335 20.9421C16.1021 21.0509 15.8522 21.1071 15.5996 21.1072H3.09297C2.84031 21.1071 2.59041 21.0509 2.35899 20.9421C2.12757 20.8333 1.91965 20.6742 1.74832 20.4749C1.57698 20.2756 1.44595 20.0405 1.36347 19.7842C1.28099 19.5279 1.24884 19.256 1.26905 18.9857L2.00392 9.16432V9.16432Z" stroke="black" stroke-width="2" stroke-linecap="round" stroke-linejoin="round"/>
<path d="M13.0068 10.3036V5.39287C13.0068 4.35094 12.6212 3.3517 11.9347 2.61495C11.2482 1.8782 10.3171 1.46429 9.34619 1.46429C8.37533 1.46429 7.44423 1.8782 6.75773 2.61495C6.07122 3.3517 5.68555 4.35094 5.68555 5.39287V10.3036" stroke="black" stroke-width="2" stroke-linecap="round" stroke-linejoin="round"/>
</svg>
